<mxfile host="Electron" modified="2024-04-07T22:50:20.506Z" agent="Mozilla/5.0 (Windows NT 10.0; Win64; x64) AppleWebKit/537.36 (KHTML, like Gecko) draw.io/24.1.0 Chrome/120.0.6099.109 Electron/28.1.0 Safari/537.36" etag="ZKKTaVcvU3RuGnMdDN9a" version="24.1.0" type="device">
  <diagram name="Página-1" id="swMrRLZcbarxOFyxOmRw">
    <mxGraphModel dx="1420" dy="830" grid="1" gridSize="10" guides="1" tooltips="1" connect="1" arrows="1" fold="1" page="1" pageScale="1" pageWidth="827" pageHeight="1169" background="#CCE5FF" math="0" shadow="0">
      <root>
        <mxCell id="0" />
        <mxCell id="1" parent="0" />
        <mxCell id="potwNliJZ8DANiVwvwCN-1" value="&lt;font style=&quot;font-size: 16px;&quot; color=&quot;#000000&quot; face=&quot;Comic Sans MS&quot;&gt;&lt;b&gt;19 Hacer un programa para ingresar un número y luego informar la cantidad de divisores de ese número. &lt;br&gt;&lt;br&gt;Ejemplo A. Si se ingresa 6 se listará: 4 divisores.&lt;br&gt;Ejemplo B. Si se ingresa 9 se listará: 3 divisores.&lt;br&gt;Ejemplo C. Si se ingresa 11 se listará: 2 divisores.&lt;/b&gt;&lt;/font&gt;" style="text;whiteSpace=wrap;html=1;fontFamily=Architects Daughter;fontSource=https%3A%2F%2Ffonts.googleapis.com%2Fcss%3Ffamily%3DArchitects%2BDaughter;" vertex="1" parent="1">
          <mxGeometry x="50" y="10" width="700" height="130" as="geometry" />
        </mxCell>
        <mxCell id="potwNliJZ8DANiVwvwCN-35" value="" style="line;strokeWidth=2;direction=south;html=1;hachureGap=4;fontFamily=Architects Daughter;fontSource=https://fonts.googleapis.com/css?family=Architects+Daughter;strokeColor=#000000;container=0;" vertex="1" parent="1">
          <mxGeometry x="323" y="900" width="10" height="40" as="geometry" />
        </mxCell>
        <mxCell id="potwNliJZ8DANiVwvwCN-2" value="" style="whiteSpace=wrap;html=1;rounded=0;labelBackgroundColor=none;strokeColor=#000000;strokeWidth=2;align=center;verticalAlign=middle;fontFamily=Helvetica;fontSize=12;fontColor=default;fillColor=#d5e8d4;container=0;" vertex="1" parent="1">
          <mxGeometry x="125.35000000000002" y="390" width="407.3" height="420" as="geometry" />
        </mxCell>
        <mxCell id="potwNliJZ8DANiVwvwCN-3" value="" style="line;strokeWidth=2;direction=south;html=1;hachureGap=4;fontFamily=Architects Daughter;fontSource=https://fonts.googleapis.com/css?family=Architects+Daughter;strokeColor=#000000;container=0;" vertex="1" parent="1">
          <mxGeometry x="324" y="250" width="10" height="50" as="geometry" />
        </mxCell>
        <mxCell id="potwNliJZ8DANiVwvwCN-4" value="" style="line;strokeWidth=2;direction=south;html=1;hachureGap=4;fontFamily=Architects Daughter;fontSource=https://fonts.googleapis.com/css?family=Architects+Daughter;strokeColor=#000000;container=0;" vertex="1" parent="1">
          <mxGeometry x="324" y="340" width="10" height="50" as="geometry" />
        </mxCell>
        <mxCell id="potwNliJZ8DANiVwvwCN-5" value="" style="line;strokeWidth=2;html=1;perimeter=backbonePerimeter;points=[];outlineConnect=0;hachureGap=4;fontFamily=Architects Daughter;fontSource=https://fonts.googleapis.com/css?family=Architects+Daughter;strokeColor=#000000;container=0;" vertex="1" parent="1">
          <mxGeometry x="270" y="525" width="34" height="10" as="geometry" />
        </mxCell>
        <mxCell id="potwNliJZ8DANiVwvwCN-6" value="" style="line;strokeWidth=2;direction=south;html=1;hachureGap=4;fontFamily=Architects Daughter;fontSource=https://fonts.googleapis.com/css?family=Architects+Daughter;strokeColor=#000000;container=0;" vertex="1" parent="1">
          <mxGeometry x="268" y="530" width="10" height="80" as="geometry" />
        </mxCell>
        <mxCell id="potwNliJZ8DANiVwvwCN-7" value="" style="line;strokeWidth=2;html=1;perimeter=backbonePerimeter;points=[];outlineConnect=0;hachureGap=4;fontFamily=Architects Daughter;fontSource=https://fonts.googleapis.com/css?family=Architects+Daughter;strokeColor=#000000;container=0;" vertex="1" parent="1">
          <mxGeometry x="434" y="525" width="46" height="10" as="geometry" />
        </mxCell>
        <mxCell id="potwNliJZ8DANiVwvwCN-8" value="" style="line;strokeWidth=2;direction=south;html=1;hachureGap=4;fontFamily=Architects Daughter;fontSource=https://fonts.googleapis.com/css?family=Architects+Daughter;strokeColor=#000000;container=0;" vertex="1" parent="1">
          <mxGeometry x="474" y="530" width="10" height="160" as="geometry" />
        </mxCell>
        <mxCell id="potwNliJZ8DANiVwvwCN-9" value="" style="line;strokeWidth=2;direction=south;html=1;hachureGap=4;fontFamily=Architects Daughter;fontSource=https://fonts.googleapis.com/css?family=Architects+Daughter;strokeColor=#000000;container=0;" vertex="1" parent="1">
          <mxGeometry x="268" y="650" width="10" height="40" as="geometry" />
        </mxCell>
        <mxCell id="potwNliJZ8DANiVwvwCN-10" value="" style="line;strokeWidth=2;html=1;perimeter=backbonePerimeter;points=[];outlineConnect=0;hachureGap=4;fontFamily=Architects Daughter;fontSource=https://fonts.googleapis.com/css?family=Architects+Daughter;strokeColor=#000000;container=0;" vertex="1" parent="1">
          <mxGeometry x="272" y="684" width="208" height="10" as="geometry" />
        </mxCell>
        <mxCell id="potwNliJZ8DANiVwvwCN-11" value="" style="line;strokeWidth=2;direction=south;html=1;hachureGap=4;fontFamily=Architects Daughter;fontSource=https://fonts.googleapis.com/css?family=Architects+Daughter;strokeColor=#000000;container=0;" vertex="1" parent="1">
          <mxGeometry x="324" y="810" width="10" height="50" as="geometry" />
        </mxCell>
        <mxCell id="potwNliJZ8DANiVwvwCN-12" value="" style="strokeWidth=2;html=1;shape=mxgraph.flowchart.start_2;whiteSpace=wrap;rounded=0;labelBackgroundColor=none;strokeColor=#000000;align=center;verticalAlign=middle;fontFamily=Helvetica;fontSize=12;fontColor=default;fillColor=#d5e8d4;container=0;" vertex="1" parent="1">
          <mxGeometry x="304" y="200" width="50" height="50" as="geometry" />
        </mxCell>
        <mxCell id="potwNliJZ8DANiVwvwCN-13" value="&lt;font size=&quot;1&quot; color=&quot;#000000&quot; face=&quot;Comic Sans MS&quot;&gt;&lt;b style=&quot;font-size: 21px;&quot;&gt;I&lt;/b&gt;&lt;/font&gt;" style="text;strokeColor=none;align=center;fillColor=none;html=1;verticalAlign=middle;whiteSpace=wrap;rounded=0;fontFamily=Architects Daughter;fontSource=https%3A%2F%2Ffonts.googleapis.com%2Fcss%3Ffamily%3DArchitects%2BDaughter;container=0;" vertex="1" parent="1">
          <mxGeometry x="309" y="205" width="40" height="40" as="geometry" />
        </mxCell>
        <mxCell id="potwNliJZ8DANiVwvwCN-16" value="" style="shape=trapezoid;perimeter=trapezoidPerimeter;whiteSpace=wrap;html=1;fixedSize=1;rounded=0;labelBackgroundColor=none;strokeColor=#121211;strokeWidth=2;align=center;verticalAlign=middle;fontFamily=Helvetica;fontSize=12;fontColor=default;fillColor=#d5e8d4;direction=west;container=0;" vertex="1" parent="1">
          <mxGeometry x="254" y="300" width="150" height="40" as="geometry">
            <mxRectangle x="-1020" y="-650" width="50" height="40" as="alternateBounds" />
          </mxGeometry>
        </mxCell>
        <mxCell id="potwNliJZ8DANiVwvwCN-17" value="&lt;font face=&quot;Comic Sans MS&quot; color=&quot;#000000&quot;&gt;&lt;span style=&quot;font-size: 16px;&quot;&gt;&lt;b&gt;num&lt;/b&gt;&lt;/span&gt;&lt;/font&gt;" style="text;strokeColor=none;align=center;fillColor=none;html=1;verticalAlign=middle;whiteSpace=wrap;rounded=0;fontFamily=Architects Daughter;fontSource=https://fonts.googleapis.com/css?family=Architects+Daughter;container=0;" vertex="1" parent="1">
          <mxGeometry x="299" y="305" width="60" height="30" as="geometry" />
        </mxCell>
        <mxCell id="potwNliJZ8DANiVwvwCN-18" value="" style="ellipse;whiteSpace=wrap;html=1;aspect=fixed;rounded=0;labelBackgroundColor=none;strokeColor=#0F140C;strokeWidth=3;align=center;verticalAlign=middle;fontFamily=Helvetica;fontSize=12;fontColor=default;fillColor=#d5e8d4;container=0;" vertex="1" parent="1">
          <mxGeometry x="40" y="415" width="170" height="170" as="geometry" />
        </mxCell>
        <mxCell id="potwNliJZ8DANiVwvwCN-19" value="" style="endArrow=none;html=1;rounded=0;strokeColor=#0F140C;fontFamily=Helvetica;fontSize=12;fontColor=default;fillColor=#B2C9AB;strokeWidth=2;" edge="1" parent="1">
          <mxGeometry width="50" height="50" relative="1" as="geometry">
            <mxPoint x="203.20000000000005" y="462.6" as="sourcePoint" />
            <mxPoint x="46.80000000000001" y="462.6" as="targetPoint" />
          </mxGeometry>
        </mxCell>
        <mxCell id="potwNliJZ8DANiVwvwCN-20" value="" style="endArrow=none;html=1;rounded=0;strokeColor=#0F140C;fontFamily=Helvetica;fontSize=12;fontColor=default;fillColor=#B2C9AB;exitX=0.264;exitY=0.952;exitDx=0;exitDy=0;exitPerimeter=0;strokeWidth=2;" edge="1" parent="1" source="potwNliJZ8DANiVwvwCN-18">
          <mxGeometry width="50" height="50" relative="1" as="geometry">
            <mxPoint x="80.80000000000001" y="517.0000000000001" as="sourcePoint" />
            <mxPoint x="87.60000000000002" y="462.6" as="targetPoint" />
          </mxGeometry>
        </mxCell>
        <mxCell id="potwNliJZ8DANiVwvwCN-21" value="" style="endArrow=none;html=1;rounded=0;strokeColor=#0F140C;fontFamily=Helvetica;fontSize=12;fontColor=default;fillColor=#B2C9AB;exitX=0.728;exitY=0.948;exitDx=0;exitDy=0;exitPerimeter=0;strokeWidth=2;" edge="1" parent="1" source="potwNliJZ8DANiVwvwCN-18">
          <mxGeometry width="50" height="50" relative="1" as="geometry">
            <mxPoint x="142" y="530.6000000000001" as="sourcePoint" />
            <mxPoint x="163.76" y="462.6" as="targetPoint" />
          </mxGeometry>
        </mxCell>
        <mxCell id="potwNliJZ8DANiVwvwCN-22" value="&lt;font size=&quot;1&quot; face=&quot;Comic Sans MS&quot; color=&quot;#000000&quot;&gt;&lt;b style=&quot;font-size: 20px;&quot;&gt;x&lt;/b&gt;&lt;/font&gt;" style="text;strokeColor=none;align=center;fillColor=none;html=1;verticalAlign=middle;whiteSpace=wrap;rounded=0;fontFamily=Architects Daughter;fontSource=https://fonts.googleapis.com/css?family=Architects+Daughter;container=0;" vertex="1" parent="1">
          <mxGeometry x="95" y="425" width="60" height="30" as="geometry" />
        </mxCell>
        <mxCell id="potwNliJZ8DANiVwvwCN-23" value="&lt;font size=&quot;1&quot; face=&quot;Comic Sans MS&quot; color=&quot;#000000&quot;&gt;&lt;b style=&quot;font-size: 14px;&quot;&gt;x = 1&lt;/b&gt;&lt;/font&gt;" style="text;strokeColor=none;align=center;fillColor=none;html=1;verticalAlign=middle;whiteSpace=wrap;rounded=0;fontFamily=Architects Daughter;fontSource=https://fonts.googleapis.com/css?family=Architects+Daughter;container=0;" vertex="1" parent="1">
          <mxGeometry x="43" y="497" width="40" height="20" as="geometry" />
        </mxCell>
        <mxCell id="potwNliJZ8DANiVwvwCN-24" value="&lt;font size=&quot;1&quot; face=&quot;Comic Sans MS&quot; color=&quot;#000000&quot;&gt;&lt;b style=&quot;font-size: 14px;&quot;&gt;x &amp;lt;= num&lt;/b&gt;&lt;/font&gt;" style="text;strokeColor=none;align=center;fillColor=none;html=1;verticalAlign=middle;whiteSpace=wrap;rounded=0;fontFamily=Architects Daughter;fontSource=https://fonts.googleapis.com/css?family=Architects+Daughter;container=0;" vertex="1" parent="1">
          <mxGeometry x="90" y="497" width="70" height="20" as="geometry" />
        </mxCell>
        <mxCell id="potwNliJZ8DANiVwvwCN-25" value="&lt;font size=&quot;1&quot; face=&quot;Comic Sans MS&quot; color=&quot;#000000&quot;&gt;&lt;b style=&quot;font-size: 16px;&quot;&gt;x++&lt;/b&gt;&lt;/font&gt;" style="text;strokeColor=none;align=center;fillColor=none;html=1;verticalAlign=middle;whiteSpace=wrap;rounded=0;fontFamily=Architects Daughter;fontSource=https://fonts.googleapis.com/css?family=Architects+Daughter;container=0;" vertex="1" parent="1">
          <mxGeometry x="167" y="497" width="40" height="20" as="geometry" />
        </mxCell>
        <mxCell id="potwNliJZ8DANiVwvwCN-26" value="" style="rhombus;whiteSpace=wrap;html=1;rounded=0;labelBackgroundColor=none;strokeColor=#0F140C;strokeWidth=2;align=center;verticalAlign=middle;fontFamily=Helvetica;fontSize=12;fontColor=default;fillColor=#d5e8d4;container=0;" vertex="1" parent="1">
          <mxGeometry x="304" y="475" width="130" height="110" as="geometry" />
        </mxCell>
        <mxCell id="potwNliJZ8DANiVwvwCN-27" value="&lt;font style=&quot;font-size: 15px;&quot;&gt;&lt;b&gt;&lt;font style=&quot;font-size: 15px;&quot; color=&quot;#000000&quot; face=&quot;Comic Sans MS&quot;&gt;num %&amp;nbsp;&lt;/font&gt;&lt;/b&gt;&lt;b style=&quot;background-color: initial;&quot;&gt;&lt;font style=&quot;font-size: 15px;&quot; color=&quot;#000000&quot; face=&quot;Comic Sans MS&quot;&gt;x&lt;/font&gt;&lt;/b&gt;&lt;/font&gt;&lt;div style=&quot;font-size: 15px;&quot;&gt;&lt;b style=&quot;background-color: initial;&quot;&gt;&lt;font style=&quot;font-size: 15px;&quot; color=&quot;#000000&quot; face=&quot;Comic Sans MS&quot;&gt;==&lt;/font&gt;&lt;/b&gt;&lt;/div&gt;&lt;div style=&quot;font-size: 15px;&quot;&gt;&lt;b style=&quot;background-color: initial;&quot;&gt;&lt;font style=&quot;font-size: 15px;&quot; color=&quot;#000000&quot; face=&quot;Comic Sans MS&quot;&gt;0&lt;/font&gt;&lt;/b&gt;&lt;/div&gt;" style="text;strokeColor=none;align=center;fillColor=none;html=1;verticalAlign=middle;whiteSpace=wrap;rounded=0;fontFamily=Architects Daughter;fontSource=https%3A%2F%2Ffonts.googleapis.com%2Fcss%3Ffamily%3DArchitects%2BDaughter;container=0;" vertex="1" parent="1">
          <mxGeometry x="334" y="505" width="70" height="60" as="geometry" />
        </mxCell>
        <mxCell id="potwNliJZ8DANiVwvwCN-30" value="&lt;b&gt;&lt;font color=&quot;#000000&quot; style=&quot;font-size: 13px;&quot; face=&quot;Comic Sans MS&quot;&gt;V&lt;/font&gt;&lt;/b&gt;" style="text;strokeColor=none;align=center;fillColor=none;html=1;verticalAlign=middle;whiteSpace=wrap;rounded=0;fontFamily=Architects Daughter;fontSource=https%3A%2F%2Ffonts.googleapis.com%2Fcss%3Ffamily%3DArchitects%2BDaughter;container=0;" vertex="1" parent="1">
          <mxGeometry x="258" y="508" width="30" height="25" as="geometry" />
        </mxCell>
        <mxCell id="potwNliJZ8DANiVwvwCN-31" value="&lt;b&gt;&lt;font color=&quot;#000000&quot; style=&quot;font-size: 13px;&quot; face=&quot;Comic Sans MS&quot;&gt;F&lt;/font&gt;&lt;/b&gt;" style="text;strokeColor=none;align=center;fillColor=none;html=1;verticalAlign=middle;whiteSpace=wrap;rounded=0;fontFamily=Architects Daughter;fontSource=https://fonts.googleapis.com/css?family=Architects+Daughter;container=0;" vertex="1" parent="1">
          <mxGeometry x="459" y="509" width="30" height="25" as="geometry" />
        </mxCell>
        <mxCell id="potwNliJZ8DANiVwvwCN-33" value="" style="shape=trapezoid;perimeter=trapezoidPerimeter;whiteSpace=wrap;html=1;fixedSize=1;rounded=0;labelBackgroundColor=none;strokeColor=#0F140C;strokeWidth=2;align=center;verticalAlign=middle;fontFamily=Helvetica;fontSize=12;fontColor=default;fillColor=#d5e8d4;container=0;" vertex="1" parent="1">
          <mxGeometry x="254" y="860" width="150" height="40" as="geometry" />
        </mxCell>
        <mxCell id="potwNliJZ8DANiVwvwCN-34" value="&lt;b&gt;&lt;font color=&quot;#000000&quot; style=&quot;font-size: 15px;&quot; face=&quot;Comic Sans MS&quot;&gt;can_div&lt;/font&gt;&lt;/b&gt;" style="text;strokeColor=none;align=center;fillColor=none;html=1;verticalAlign=middle;whiteSpace=wrap;rounded=0;fontFamily=Architects Daughter;fontSource=https%3A%2F%2Ffonts.googleapis.com%2Fcss%3Ffamily%3DArchitects%2BDaughter;container=0;" vertex="1" parent="1">
          <mxGeometry x="283" y="865" width="86" height="30" as="geometry" />
        </mxCell>
        <mxCell id="potwNliJZ8DANiVwvwCN-38" value="" style="rounded=0;whiteSpace=wrap;html=1;labelBackgroundColor=none;strokeColor=#0f100e;strokeWidth=2;align=center;verticalAlign=middle;fontFamily=Helvetica;fontSize=12;fontColor=default;fillColor=#d5e8d4;container=0;" vertex="1" parent="1">
          <mxGeometry x="213" y="610" width="120" height="40" as="geometry" />
        </mxCell>
        <mxCell id="potwNliJZ8DANiVwvwCN-39" value="&lt;font size=&quot;1&quot; face=&quot;Comic Sans MS&quot; color=&quot;#000000&quot;&gt;&lt;b style=&quot;font-size: 15px;&quot;&gt;can_div++&lt;/b&gt;&lt;/font&gt;" style="text;strokeColor=none;align=center;fillColor=none;html=1;verticalAlign=middle;whiteSpace=wrap;rounded=0;fontFamily=Architects Daughter;fontSource=https://fonts.googleapis.com/css?family=Architects+Daughter;container=0;" vertex="1" parent="1">
          <mxGeometry x="243" y="615" width="60" height="30" as="geometry" />
        </mxCell>
        <mxCell id="potwNliJZ8DANiVwvwCN-14" value="" style="strokeWidth=2;html=1;shape=mxgraph.flowchart.start_2;whiteSpace=wrap;rounded=0;labelBackgroundColor=none;strokeColor=#000000;align=center;verticalAlign=middle;fontFamily=Helvetica;fontSize=12;fontColor=default;fillColor=#d5e8d4;container=0;" vertex="1" parent="1">
          <mxGeometry x="302" y="940" width="50" height="50" as="geometry" />
        </mxCell>
        <mxCell id="potwNliJZ8DANiVwvwCN-15" value="&lt;font size=&quot;1&quot; color=&quot;#000000&quot; face=&quot;Comic Sans MS&quot;&gt;&lt;b style=&quot;font-size: 21px;&quot;&gt;F&lt;/b&gt;&lt;/font&gt;" style="text;strokeColor=none;align=center;fillColor=none;html=1;verticalAlign=middle;whiteSpace=wrap;rounded=0;fontFamily=Architects Daughter;fontSource=https://fonts.googleapis.com/css?family=Architects+Daughter;container=0;" vertex="1" parent="1">
          <mxGeometry x="307" y="945" width="40" height="40" as="geometry" />
        </mxCell>
      </root>
    </mxGraphModel>
  </diagram>
</mxfile>
